<?xml version="1.0" encoding="UTF-8" standalone="no"?> <svg xmlns="http://www.w3.org/2000/svg" viewBox="0 0 48 48"><g id="Knife"><path d="M46.017,5.247,44.351,3.581a3.359,3.359,0,0,0-4.746,0L17.951,25.235C6.374,36.813,1.25,43.6,1.2,43.667a1,1,0,0,0,.658,1.59,20.926,20.926,0,0,0,2.726.155c4.078,0,11.92-.91,18.112-7.1L36.022,24.984a1,1,0,0,0,0-1.414l-2.361-2.362a17.657,17.657,0,0,0,4.278-3.138l.331-.33a17.679,17.679,0,0,0,3.317-4.6,2.045,2.045,0,0,1,.913-.912l1.982-.992a4.019,4.019,0,0,0,1.051-.757l.484-.484A3.358,3.358,0,0,0,46.017,5.247ZM21.282,36.9C15.33,42.849,7.473,43.463,3.971,43.39c2.089-2.567,7.039-8.385,15.394-16.741L27.819,18.2,33.9,24.277ZM44.6,8.578l-.483.483a2.047,2.047,0,0,1-.532.383l-1.983.992A4.06,4.06,0,0,0,39.8,12.243a15.67,15.67,0,0,1-2.942,4.082l-.331.33A15.657,15.657,0,0,1,32.443,19.6l-.262.131-2.948-2.948L41.02,5a1.356,1.356,0,0,1,1.917,0L44.6,6.661A1.358,1.358,0,0,1,44.6,8.578Z"/></g></svg>