<?xml version="1.0" encoding="UTF-8" standalone="no"?> <svg width="64" height="64" viewBox="0 0 64 64" fill="none" xmlns="http://www.w3.org/2000/svg">
<path d="M59.7499 53.47C59.3012 53.0082 58.7651 52.6404 58.1728 52.3881C57.5804 52.1357 56.9438 52.0038 56.2999 52H50.4199C52.6646 51.0446 54.5794 49.4512 55.9268 47.4176C57.2743 45.384 57.9951 42.9995 57.9999 40.56V31.21C57.9999 30.9448 57.8946 30.6904 57.707 30.5029C57.5195 30.3154 57.2651 30.21 56.9999 30.21H46.5399V24.14H50.6099C50.8751 24.14 51.1295 24.0346 51.317 23.8471C51.5046 23.6596 51.6099 23.4052 51.6099 23.14V20.21H52.9999C53.2651 20.21 53.5195 20.1046 53.707 19.9171C53.8946 19.7296 53.9999 19.4752 53.9999 19.21V12.41C53.9973 9.91513 53.005 7.52319 51.2409 5.75905C49.4767 3.99491 47.0848 3.00265 44.5899 3H11.5899C9.35951 2.99901 7.21595 3.86459 5.61162 5.41407C4.00729 6.96355 3.06771 9.07573 2.99116 11.3048C2.9146 13.5339 3.70707 15.7056 5.20132 17.3615C6.69557 19.0174 8.7747 20.028 10.9999 20.18C10.9284 24.7252 10.4397 29.2542 9.53993 33.71C8.56015 38.4796 7.10626 43.1394 5.19993 47.62C3.17993 51.8 0.569927 60.49 7.63993 61H56.4999C60.2899 61.12 62.5299 56.15 59.7499 53.47ZM43.5099 10.61H45.5099C45.7751 10.61 46.0295 10.7154 46.217 10.9029C46.4046 11.0904 46.5099 11.3448 46.5099 11.61C46.5099 11.8752 46.4046 12.1296 46.217 12.3171C46.0295 12.5046 45.7751 12.61 45.5099 12.61H43.5099C43.2447 12.61 42.9904 12.5046 42.8028 12.3171C42.6153 12.1296 42.5099 11.8752 42.5099 11.61C42.5099 11.3448 42.6153 11.0904 42.8028 10.9029C42.9904 10.7154 43.2447 10.61 43.5099 10.61ZM41.5099 20.21H49.6599V22.14H41.4599L41.5099 20.21ZM36.7999 10.61H38.7999C39.0651 10.61 39.3195 10.7154 39.507 10.9029C39.6946 11.0904 39.7999 11.3448 39.7999 11.61C39.7999 11.8752 39.6946 12.1296 39.507 12.3171C39.3195 12.5046 39.0651 12.61 38.7999 12.61H36.7999C36.5347 12.61 36.2804 12.5046 36.0928 12.3171C35.9053 12.1296 35.7999 11.8752 35.7999 11.61C35.7999 11.3448 35.9053 11.0904 36.0928 10.9029C36.2804 10.7154 36.5347 10.61 36.7999 10.61ZM30.0399 10.61H32.0399C32.3051 10.61 32.5595 10.7154 32.747 10.9029C32.9346 11.0904 33.0399 11.3448 33.0399 11.61C33.0399 11.8752 32.9346 12.1296 32.747 12.3171C32.5595 12.5046 32.3051 12.61 32.0399 12.61H29.9999C29.7347 12.61 29.4804 12.5046 29.2928 12.3171C29.1053 12.1296 28.9999 11.8752 28.9999 11.61C28.9999 11.3448 29.1053 11.0904 29.2928 10.9029C29.4804 10.7154 29.7347 10.61 29.9999 10.61H30.0399ZM39.5099 20.21V23.14C39.5099 23.4052 39.6153 23.6596 39.8028 23.8471C39.9904 24.0346 40.2447 24.14 40.5099 24.14H44.5899V30.21H34.0999C33.8347 30.21 33.5804 30.3154 33.3928 30.5029C33.2053 30.6904 33.0999 30.9448 33.0999 31.21V40.56C33.1018 42.9976 33.8191 45.381 35.163 47.4146C36.5069 49.4482 38.4183 51.0426 40.6599 52H23.4299C22.3691 52 21.3516 51.5786 20.6015 50.8284C19.8514 50.0783 19.4299 49.0609 19.4299 48V45C19.4515 36.0704 22.3555 27.3863 27.7099 20.24L39.5099 20.21ZM58.3099 58.27C58.0736 58.5082 57.7913 58.6958 57.4801 58.8214C57.1689 58.9469 56.8354 59.0076 56.4999 59H7.63993C2.71993 58.59 5.85993 51.07 7.03993 48.4C8.99944 43.7973 10.4935 39.0102 11.4999 34.11C12.4326 29.5336 12.9348 24.88 12.9999 20.21H25.2399C20.1746 27.4855 17.4531 36.1349 17.4399 45V48C17.4399 49.5913 18.0721 51.1174 19.1973 52.2426C20.3225 53.3679 21.8486 54 23.4399 54H56.2999C58.4999 53.94 59.9399 56.68 58.2599 58.27H58.3099Z" fill="black"/>
</svg>
