<?xml version="1.0" encoding="UTF-8" standalone="no"?> <svg width="64" height="64" viewBox="0 0 64 64" fill="none" xmlns="http://www.w3.org/2000/svg">
<path d="M20.13 51.9999C20.3395 52.163 20.6053 52.2362 20.8688 52.2034C21.1322 52.1706 21.3719 52.0344 21.535 51.8249C21.6981 51.6154 21.7713 51.3497 21.7385 51.0862C21.7057 50.8227 21.5695 50.583 21.36 50.4199C18.2988 48.0691 16.2897 44.6045 15.77 40.7799C15.7329 40.5147 15.5919 40.2751 15.3781 40.1138C15.1643 39.9525 14.8952 39.8828 14.63 39.9199C14.3648 39.957 14.1252 40.098 13.9639 40.3118C13.8026 40.5256 13.7329 40.7947 13.77 41.0599C14.3707 45.4004 16.6553 49.3302 20.13 51.9999Z" fill="black"/>
<path d="M55.4499 8.38997C55.4627 8.25752 55.449 8.12385 55.4095 7.99678C55.37 7.86972 55.3056 7.75181 55.2199 7.64997C55.0527 7.4464 54.8119 7.31704 54.5499 7.28997L10.9999 2.99997C10.7361 2.9749 10.473 3.05562 10.2686 3.22437C10.0643 3.39313 9.93524 3.63613 9.90992 3.89997L9.60992 6.76997C9.10934 11.5495 10.2065 16.3601 12.7299 20.45H9.54992C9.2847 20.45 9.03035 20.5553 8.84281 20.7429C8.65528 20.9304 8.54992 21.1848 8.54992 21.45V24.3C8.54718 27.9828 9.47965 31.606 11.2599 34.83H9.54992C9.2847 34.83 9.03035 34.9353 8.84281 35.1229C8.65528 35.3104 8.54992 35.5648 8.54992 35.83V38.72C8.53915 42.0554 9.29562 45.3485 10.7608 48.3449C12.2261 51.3412 14.3608 53.9604 16.9999 56C17.6147 56.4715 18.1142 57.0766 18.4607 57.7696C18.8072 58.4625 18.9916 59.2252 18.9999 60C18.9999 60.2652 19.1053 60.5195 19.2928 60.7071C19.4803 60.8946 19.7347 61 19.9999 61H42.7999C43.0651 61 43.3195 60.8946 43.507 60.7071C43.6946 60.5195 43.7999 60.2652 43.7999 60C43.8068 59.225 43.9905 58.4618 44.3371 57.7686C44.6837 57.0753 45.184 56.4704 45.7999 56C48.4415 53.962 50.5785 51.3433 52.0455 48.3468C53.5126 45.3503 54.2703 42.0563 54.2599 38.72V35.83C54.2599 35.5648 54.1546 35.3104 53.967 35.1229C53.7795 34.9353 53.5251 34.83 53.2599 34.83H51.5999C53.3847 31.6078 54.3175 27.9834 54.3099 24.3V21.41C54.3099 21.1448 54.2046 20.8904 54.017 20.7029C53.8295 20.5153 53.5751 20.41 53.3099 20.41H51.9999C53.7123 17.6294 54.7754 14.4983 55.1099 11.25L55.4499 8.38997ZM52.3099 38.72C52.3191 41.7516 51.6302 44.7446 50.2967 47.4672C48.9631 50.1897 47.0207 52.5688 44.6199 54.42C43.1537 55.5347 42.1813 57.1783 41.9099 59H20.9999C20.7308 57.164 19.7547 55.506 18.2799 54.38C15.8791 52.5288 13.9367 50.1497 12.6032 47.4272C11.2696 44.7046 10.5808 41.7116 10.5899 38.68V36.83H52.3099V38.72ZM52.3099 24.3C52.3289 28.0235 51.2884 31.6755 49.3099 34.83H13.5899C11.616 31.6735 10.5759 28.0228 10.5899 24.3V22.41H52.3099V24.3ZM53.1599 11.05C52.809 14.4203 51.5968 17.6436 49.6399 20.41H15.1499C12.3761 16.4938 11.1182 11.7038 11.6099 6.92997L11.7999 5.04997L53.3499 9.17997L53.1599 11.05Z" fill="black"/>
</svg>
