<?xml version="1.0" encoding="utf-8"?>
<!-- Generator: Adobe Illustrator 24.2.1, SVG Export Plug-In . SVG Version: 6.00 Build 0)  -->
<svg version="1.1" id="Layer_1" xmlns="http://www.w3.org/2000/svg" xmlns:xlink="http://www.w3.org/1999/xlink" x="0px" y="0px"
	 viewBox="0 0 220.6566 215.6102" enable-background="new 0 0 220.6566 215.6102" xml:space="preserve">
<g>
	<path d="M42.9641,203.2827c-0.8105,5.4629,2.9614,10.5488,8.4248,11.3584c0.4976,0.0742,0.9907,0.1094,1.4795,0.1094
		c4.8735,0,9.1431-3.5684,9.8789-8.5342l8.1832-55.1853c-5.7018,0.9984-12.7793,1.97-20.5822,2.4522L42.9641,203.2827z"/>
	<path d="M0,142.8778c26.6509,13.1848,65.6424,6.8143,81.6995,2.844c-10.8324-27.3691-28.3923-32.9544-27.9002-44.8698
		c1.1743-1.9084,2.4827-3.9051,3.9587-5.9811c3.7113-5.2203,8.4565-10.9195,14.5768-16.8349
		c0.0235,0.0185,0.0468,0.0347,0.0703,0.0529l-8.4888-18.3405c-0.9873-2.1333-1.085-4.5234-0.2754-6.7295
		c0.8105-2.2065,2.4307-3.9658,4.5645-4.9531c1.1689-0.5405,2.4111-0.8149,3.6914-0.8149c3.4189,0,6.5557,2.0039,7.9912,5.1055
		l10.8506,23.4434l0.2421-0.0276l-4.8115-28.5464c-0.1882-1.1169-0.6519-2.1179-1.3082-2.9475
		c-5.2706-8.3973-16.3228-11.4551-26.4405-1.8992c-9.451,8.9236-2.5974,20.3472-27.8777,40.0088
		c-0.9654,0.7508-1.9755,1.5131-3.0374,2.2883C10.3605,90.8213,5.8843,136.2471,0,142.8778z"/>
	<polygon points="198.809,215.6102 213.7543,215.6102 213.7562,122.1831 220.6566,122.1831 220.6566,115.7769 105.6844,115.7769 
		105.6844,122.1831 112.5867,122.1831 112.5848,215.6102 127.532,215.6102 127.532,136.2378 198.809,136.2378 	"/>
	<path d="M132.8267,76.381l1.7222-2.1747l-5.8278-4.632l-1.9805,2.5003C129.3373,72.5373,131.5518,74.1429,132.8267,76.381z"/>
	<path d="M140.4222,75.7718c0,0,16.2142-17.698,15.7604-40.8278l-25.9993,32.6808L140.4222,75.7718z"/>
	<rect x="119.3232" y="110.4583" width="67.1666" height="2.3333"/>
	<path d="M174.4899,108.7499c2.5667,0,4.6667-2.1,4.6667-4.6666v-0.0001c0-2.5667-2.1-4.6666-4.6667-4.6666h-24.5v0.0002
		c-1.782,0-3.2266,2.0892-3.2266,4.6665c0,2.5772,1.4446,4.6664,3.2266,4.6664v0.0002H174.4899z M147.9635,104.0836
		c0-2.043,1.0674-3.4668,2.0264-3.4668s2.0264,1.4238,2.0264,3.4668s-1.0674,3.4658-2.0264,3.4658
		S147.9635,106.1266,147.9635,104.0836z"/>
	<path d="M126.569,107.1052c-0.0403,0.9074,2.1215,1.7404,4.8284,1.8607c2.5643,0.1139,4.6742-0.4562,4.9261-1.2877
		c0.2174,0.0886,0.434,0.178,0.6642,0.2589c2.5565,0.8979,4.873,0.9313,5.174,0.0743c0.0941-0.2678-0.0397-0.5934-0.3187-0.9384
		c1.813,1.2177,3.4938,1.7158,3.9778,1.1029c0.5629-0.7128-0.7048-2.6519-2.8314-4.3312c-2.1266-1.6792-4.3068-2.4626-4.8696-1.7498
		c-0.4946,0.6262,0.4251,2.199,2.0977,3.7105c-0.6166-0.3525-1.3353-0.6891-2.1397-0.9717c-2.5565-0.898-4.873-0.9313-5.174-0.0743
		c-0.1109,0.3157,0.0711,0.7087,0.4682,1.1235c-0.564-0.1021-1.1791-0.1741-1.8288-0.2029
		C128.8364,105.5598,126.6093,106.1979,126.569,107.1052z"/>
	<path d="M57.1699,18.9421c-11.0067,12.6543-16.9805,10.8121-20.1978,7.6052c-3.2172-3.2069-0.8525,10.6436,14.3784,9.6143
		c9.898-0.6689,17.3812-13.2607,24.2457-17.2177c0.35-3.2706,1.3729-6.4781,3.0792-9.4091
		C72.705,8.1095,65.3569,9.5295,57.1699,18.9421z"/>
	<ellipse transform="matrix(0.2733 -0.9619 0.9619 0.2733 51.4216 111.0682)" cx="99.2228" cy="21.5" rx="21.5" ry="21.5"/>
	<path d="M88.3634,93.784l29.5801,11.4318c0.7705,0.2979,1.5625,0.439,2.3418,0.439c2.6074,0,5.0679-1.5806,6.0645-4.1587
		c1.2939-3.3486-0.3716-7.1123-3.7197-8.4063l-2.3242-0.8982l1.7794-2.2469L88.3634,93.784z"/>
	<path d="M77.8,53.3221c-1.5078-3.2593-5.373-4.6753-8.6289-3.1689c-3.2578,1.5078-4.6758,5.3711-3.168,8.6289l13.5195,29.21
		c1.0723,2.3174,3.3867,3.77,5.8955,3.77c0.2441,0,0.4912-0.0137,0.7383-0.0415l39.7646-4.5273
		c3.5664-0.4063,6.1289-3.627,5.7227-7.1938c-0.4053-3.5664-3.6152-6.1255-7.1934-5.7231l-35.1016,3.9966L77.8,53.3221z"/>
</g>
</svg>
