<?xml version="1.0" encoding="utf-8"?>
<!-- Generator: Adobe Illustrator 16.0.0, SVG Export Plug-In . SVG Version: 6.00 Build 0)  -->
<!DOCTYPE svg PUBLIC "-//W3C//DTD SVG 1.0//EN" "http://www.w3.org/TR/2001/REC-SVG-20010904/DTD/svg10.dtd">
<svg version="1.0" id="Layer_1" xmlns="http://www.w3.org/2000/svg" xmlns:xlink="http://www.w3.org/1999/xlink" x="0px" y="0px"
	 width="100px" height="100px" viewBox="0 0 100 100" enable-background="new 0 0 100 100" xml:space="preserve">
<path d="M50,30c-22.09,0-40,7.462-40,16.665v0.001c0,13.76,4.596,26.426,12.266,36.657C30.059,87.578,39.496,90,50,90
	c10.505,0,19.941-2.422,27.731-6.673C85.403,73.093,90,60.43,90,46.667v-0.001C90,37.462,72.087,30,50,30z M73.262,78.145
	C66.497,81.543,58.489,83.333,50,83.333c-8.49,0-16.5-1.79-23.265-5.191c-4.674-6.586-7.747-13.969-9.16-21.742
	c7.264,4.193,19.064,6.934,32.425,6.934c13.359,0,25.163-2.74,32.425-6.934C81.013,64.173,77.939,71.556,73.262,78.145z M50,56.667
	c-20.348,0-33.333-5.925-33.333-10.002S29.652,36.667,50,36.667c20.349,0,33.333,5.921,33.333,9.999S70.349,56.667,50,56.667z"/>
<polygon points="54.453,23.333 59.307,10 52.214,10 47.36,23.333 "/>
<polygon points="71.813,23.333 76.667,10 69.573,10 64.72,23.333 "/>
<polygon points="37.093,23.333 41.947,10 34.854,10 30,23.333 "/>
</svg>
