<?xml version="1.0" encoding="UTF-8"?><svg id="Layer_1" xmlns="http://www.w3.org/2000/svg" viewBox="0 0 48 48"><path d="M20,29H8C3.589,29,0,25.411,0,21c0-1.103,.897-2,2-2H26c1.103,0,2,.897,2,2,0,4.411-3.589,8-8,8Z"/><path d="M31,20c-.082,0-.163,.01-.242,.03l-.835,.209c.048,.247,.077,.501,.077,.762,0,.443-.039,.876-.095,1.305l1.218-.305h1.877v-2h-2Z"/><path d="M45,24h-8c-1.103,0-2-.897-2-2v-2c0-1.103,.897-2,2-2h8c1.654,0,3,1.346,3,3s-1.346,3-3,3Z"/><path d="M14.001,17c-.339,0-.669-.172-.857-.483-.852-1.412-.852-3.623,0-5.034,.478-.79,.478-2.176,0-2.966-.285-.473-.133-1.087,.34-1.373,.471-.286,1.086-.134,1.373,.339,.852,1.412,.852,3.623,0,5.034-.478,.79-.478,2.176,0,2.966,.285,.473,.133,1.087-.34,1.373-.161,.098-.34,.144-.516,.144Z"/><path d="M7.501,17c-.339,0-.669-.172-.857-.483-.852-1.412-.852-3.623,0-5.034,.478-.79,.478-2.176,0-2.966-.285-.473-.133-1.087,.34-1.373,.472-.286,1.087-.134,1.373,.339,.852,1.412,.852,3.623,0,5.034-.478,.79-.478,2.176,0,2.966,.285,.473,.133,1.087-.34,1.373-.161,.098-.34,.144-.516,.144Z"/><path d="M20.501,17c-.339,0-.669-.172-.857-.483-.852-1.412-.852-3.623,0-5.034,.478-.79,.478-2.176,0-2.966-.285-.473-.133-1.087,.34-1.373,.471-.286,1.087-.134,1.373,.339,.852,1.412,.852,3.623,0,5.034-.478,.79-.478,2.176,0,2.966,.285,.473,.133,1.087-.34,1.373-.161,.098-.34,.144-.516,.144Z"/><path d="M21.707,31.293c-.391-.391-1.023-.391-1.414,0-.234,.234-2.293,2.36-2.293,4.707,0,1.654,1.346,3,3,3s3-1.346,3-3c0-2.347-2.059-4.473-2.293-4.707Z"/><path d="M14.707,31.293c-.391-.391-1.023-.391-1.414,0-.234,.234-2.293,2.36-2.293,4.707,0,1.654,1.346,3,3,3s3-1.346,3-3c0-2.347-2.059-4.473-2.293-4.707Z"/><path d="M7.707,31.293c-.391-.391-1.023-.391-1.414,0-.234,.234-2.293,2.36-2.293,4.707,0,1.654,1.346,3,3,3s3-1.346,3-3c0-2.347-2.059-4.473-2.293-4.707Z"/><path d="M25,41H3c-.553,0-1-.447-1-1s.447-1,1-1H25c.553,0,1,.447,1,1s-.447,1-1,1Z"/></svg>