<?xml version="1.0" encoding="UTF-8" standalone="no"?> <svg width="512" height="512" viewBox="0 0 512 512" fill="none" xmlns="http://www.w3.org/2000/svg">
<path d="M104 368C108.418 368 112 364.418 112 360C112 355.582 108.418 352 104 352C99.5817 352 96 355.582 96 360C96 364.418 99.5817 368 104 368Z" fill="black"/>
<path d="M80 392C84.4183 392 88 388.418 88 384C88 379.582 84.4183 376 80 376C75.5817 376 72 379.582 72 384C72 388.418 75.5817 392 80 392Z" fill="black"/>
<path d="M376 368C380.418 368 384 364.418 384 360C384 355.582 380.418 352 376 352C371.582 352 368 355.582 368 360C368 364.418 371.582 368 376 368Z" fill="black"/>
<path d="M496 39.9999C496 35.2532 494.592 30.6131 491.955 26.6664C489.318 22.7197 485.57 19.6436 481.185 17.827C476.799 16.0105 471.974 15.5351 467.318 16.4611C462.663 17.387 458.387 19.6726 455.03 23.0289V23.0289C451.117 26.923 448.678 32.0555 448.13 37.5489C443.392 37.0456 438.601 37.6087 434.108 39.1969C429.616 40.7852 425.535 43.3583 422.166 46.7279L330.284 138.61C325.275 143.631 322.073 150.172 321.179 157.208C320.285 164.244 321.749 171.377 325.343 177.492L280.9 221.933L221.633 237.533C190.061 245.852 161.26 262.394 138.166 285.474C132.799 290.835 128.429 297.108 125.261 304H24C21.8783 304 19.8434 304.843 18.3431 306.343C16.8429 307.843 16 309.878 16 312C16 413.458 98.542 496 200 496H264C365.458 496 448 413.458 448 312C448 309.878 447.157 307.843 445.657 306.343C444.157 304.843 442.122 304 440 304H273.182C274.449 300.215 275.592 296.386 276.613 292.514L292.213 233.247L336.654 188.806C342.769 192.398 349.902 193.861 356.937 192.967C363.972 192.073 370.513 188.872 375.535 183.865L467.418 91.9829C471.075 88.3226 473.79 83.8296 475.329 78.8895C476.868 73.9494 477.185 68.7097 476.254 63.6199C481.792 62.6224 486.804 59.7106 490.413 55.3931C494.023 51.0757 496 45.6273 496 39.9999ZM215.349 344.049C220.674 338.722 225.46 332.883 229.64 326.617L234.051 320H249.338C241.193 336.538 230.389 351.628 217.357 364.667C210.329 371.694 201.294 376.367 191.498 378.041C181.702 379.715 171.628 378.308 162.665 374.014C182.601 368.943 200.801 358.592 215.349 344.049V344.049ZM158.33 358.613L154.596 359.547L155.53 355.813C158.778 342.827 164.641 330.641 172.761 320H214.74C201.186 339.23 181.162 352.937 158.33 358.613V358.613ZM244.718 304L265.085 273.45L261.139 288.442C259.751 293.717 258.111 298.903 256.219 304H244.718ZM225.489 304H188.129C190.777 301.795 193.538 299.731 196.402 297.816L256.179 257.965L225.489 304ZM149.476 296.785C170.565 275.706 196.867 260.597 225.7 253L240.693 249.054L187.527 284.5C181.26 288.679 175.421 293.466 170.094 298.791C168.409 300.477 166.783 302.212 165.216 303.997H143.551C145.287 301.406 147.272 298.991 149.476 296.785ZM136.56 320.314C136.583 320.209 136.611 320.105 136.635 320H153.394C147.422 329.769 142.95 340.38 140.129 351.478C135.466 341.787 134.209 330.808 136.56 320.314V320.314ZM120 448C118.418 448 116.871 447.531 115.555 446.652C114.24 445.773 113.214 444.523 112.609 443.061C112.003 441.6 111.845 439.991 112.154 438.439C112.462 436.887 113.224 435.462 114.343 434.343C115.462 433.224 116.887 432.462 118.439 432.154C119.991 431.845 121.6 432.003 123.061 432.609C124.523 433.214 125.773 434.24 126.652 435.555C127.531 436.871 128 438.418 128 440C128 442.122 127.157 444.156 125.657 445.657C124.157 447.157 122.122 448 120 448ZM272 448C270.418 448 268.871 447.531 267.555 446.652C266.24 445.773 265.214 444.523 264.609 443.061C264.003 441.6 263.845 439.991 264.154 438.439C264.462 436.887 265.224 435.462 266.343 434.343C267.462 433.224 268.887 432.462 270.439 432.154C271.991 431.845 273.6 432.003 275.061 432.609C276.523 433.214 277.773 434.24 278.652 435.555C279.531 436.871 280 438.418 280 440C280 442.122 279.157 444.156 277.657 445.657C276.157 447.157 274.122 448 272 448ZM304 424C302.418 424 300.871 423.531 299.555 422.652C298.24 421.773 297.214 420.523 296.609 419.061C296.003 417.6 295.845 415.991 296.154 414.439C296.462 412.887 297.224 411.462 298.343 410.343C299.462 409.224 300.887 408.462 302.439 408.154C303.991 407.845 305.6 408.003 307.061 408.609C308.523 409.214 309.773 410.24 310.652 411.555C311.531 412.871 312 414.418 312 416C312 418.122 311.157 420.156 309.657 421.657C308.157 423.157 306.122 424 304 424ZM336 440C334.418 440 332.871 439.531 331.555 438.652C330.24 437.773 329.214 436.523 328.609 435.061C328.003 433.6 327.845 431.991 328.154 430.439C328.462 428.887 329.224 427.462 330.343 426.343C331.462 425.224 332.887 424.462 334.439 424.154C335.991 423.845 337.6 424.003 339.061 424.609C340.523 425.214 341.773 426.24 342.652 427.555C343.531 428.871 344 430.418 344 432C344 434.122 343.157 436.156 341.657 437.657C340.157 439.157 338.122 440 336 440ZM431.812 320C430.097 356.58 416.421 391.586 392.884 419.641C391.02 413.934 387.4 408.962 382.542 405.435C377.684 401.908 371.836 400.006 365.833 400C363.347 400.008 360.916 399.267 358.857 397.873C356.798 396.479 355.207 394.497 354.291 392.186C350.545 382.765 343.733 374.88 334.956 369.806C326.178 364.731 315.947 362.762 305.913 364.217L297.013 365.489C283.396 367.431 270.95 374.262 262 384.707L253.093 395.1C245.327 404.169 235.689 411.449 224.841 416.438C213.994 421.427 202.194 424.007 190.254 424H188.788C171.838 423.965 155.351 418.469 141.77 408.327C134.554 402.939 125.794 400.019 116.788 400C109.05 399.974 101.46 402.116 94.8776 406.184C88.2955 410.252 82.9848 416.083 79.548 423.016L77.588 426.936C50.1733 397.854 34.0693 359.922 32.188 320H120.328C118.77 329.17 119.229 338.57 121.673 347.545C124.117 356.52 128.487 364.854 134.48 371.969C140.472 379.083 147.942 384.806 156.371 388.74C164.8 392.674 173.985 394.724 183.287 394.747C188 394.744 192.699 394.225 197.3 393.2C209.184 390.564 220.067 384.589 228.67 375.978C244.788 359.845 257.777 340.865 266.979 320H431.812ZM477.656 45.6569C476.916 46.4134 476.034 47.0157 475.06 47.4288C474.085 47.8419 473.039 48.0576 471.981 48.0636C470.923 48.0695 469.874 47.8654 468.895 47.4633C467.917 47.0611 467.028 46.4687 466.279 45.7205C465.531 44.9724 464.939 44.0832 464.537 43.1045C464.134 42.1258 463.93 41.077 463.936 40.0189C463.942 38.9608 464.158 37.9144 464.571 36.9403C464.984 35.9662 465.586 35.0837 466.343 34.3439V34.3439C467.083 33.5874 467.965 32.9853 468.94 32.5722C469.914 32.1592 470.96 31.9435 472.018 31.9377C473.076 31.9319 474.125 32.136 475.104 32.5383C476.082 32.9406 476.972 33.533 477.72 34.2812C478.468 35.0295 479.06 35.9187 479.462 36.8975C479.864 37.8762 480.068 38.925 480.062 39.9831C480.056 41.0412 479.84 42.0875 479.427 43.0616C479.014 44.0357 478.412 44.9182 477.655 45.6579L477.656 45.6569Z" fill="black"/>
<path d="M112 264C116.418 264 120 260.418 120 256C120 251.582 116.418 248 112 248C107.582 248 104 251.582 104 256C104 260.418 107.582 264 112 264Z" fill="black"/>
<path d="M72 288C76.4183 288 80 284.418 80 280C80 275.582 76.4183 272 72 272C67.5817 272 64 275.582 64 280C64 284.418 67.5817 288 72 288Z" fill="black"/>
<path d="M48 256C52.4183 256 56 252.418 56 248C56 243.582 52.4183 240 48 240C43.5817 240 40 243.582 40 248C40 252.418 43.5817 256 48 256Z" fill="black"/>
<path d="M288 352C292.418 352 296 348.418 296 344C296 339.582 292.418 336 288 336C283.582 336 280 339.582 280 344C280 348.418 283.582 352 288 352Z" fill="black"/>
<path d="M64 352C68.4183 352 72 348.418 72 344C72 339.582 68.4183 336 64 336C59.5817 336 56 339.582 56 344C56 348.418 59.5817 352 64 352Z" fill="black"/>
</svg>
