<?xml version="1.0" encoding="UTF-8" standalone="no"?> <svg width="64" height="64" viewBox="0 0 64 64" fill="none" xmlns="http://www.w3.org/2000/svg">
<path d="M58.2801 7.99995C58.1801 7.87995 57.7501 7.44995 57.6201 7.33995C55.6806 5.49824 53.3189 4.16046 50.7421 3.4439C48.1652 2.72733 45.452 2.65387 42.8401 3.22995C40.0154 3.8091 37.3829 5.09275 35.187 6.96166C32.9912 8.83056 31.3033 11.2241 30.2801 13.9199V13.9199L23.6301 33.7999L22.7201 32.8899C22.6272 32.7962 22.5166 32.7218 22.3947 32.6711C22.2728 32.6203 22.1421 32.5941 22.0101 32.5941C21.8781 32.5941 21.7474 32.6203 21.6255 32.6711C21.5037 32.7218 21.3931 32.7962 21.3001 32.8899C21.1139 33.0773 21.0093 33.3308 21.0093 33.5949C21.0093 33.8591 21.1139 34.1126 21.3001 34.2999L22.6501 35.6499L6.00012 52.2699C5.51545 52.7514 5.1308 53.324 4.86832 53.9547C4.60583 54.5854 4.4707 55.2618 4.4707 55.9449C4.4707 56.6281 4.60583 57.3045 4.86832 57.9352C5.1308 58.5659 5.51545 59.1385 6.00012 59.6199C6.97515 60.5939 8.29695 61.141 9.67512 61.141C11.0533 61.141 12.3751 60.5939 13.3501 59.6199L30.0001 42.9999L31.3501 44.3499C31.4436 44.4426 31.5544 44.516 31.6762 44.5657C31.798 44.6155 31.9285 44.6407 32.0601 44.6399C32.1917 44.6407 32.3222 44.6155 32.444 44.5657C32.5659 44.516 32.6767 44.4426 32.7701 44.3499C32.9564 44.1626 33.0609 43.9091 33.0609 43.6449C33.0609 43.3808 32.9564 43.1273 32.7701 42.9399L31.8501 41.9999L51.7301 35.3499C54.426 34.3326 56.8202 32.649 58.6895 30.4562C60.5588 28.2634 61.8423 25.6328 62.4201 22.8099C62.9975 20.1911 62.9219 17.4705 62.1999 14.8878C61.478 12.3052 60.1318 9.93971 58.2801 7.99995V7.99995ZM57.2801 12.4199C56.5101 17.2699 51.3601 24.5299 47.4401 26.2899L47.3301 26.3399L27.8301 37.9999L27.6601 37.8199L39.2801 18.3599L39.3401 18.2599C41.1001 14.3299 48.3401 9.17995 53.2101 8.40995C54.2101 8.24995 55.6701 8.22995 56.4501 9.01995L56.6301 9.18995C57.4301 9.99995 57.4101 11.3899 57.2401 12.4499L57.2801 12.4199ZM32.1601 14.6099C33.0664 12.2315 34.5593 10.1208 36.4999 8.4739C38.4405 6.82699 40.766 5.69735 43.2601 5.18995C46.5518 4.44947 49.999 4.88833 53.0001 6.42995H52.9001C47.3501 7.29995 39.6301 12.8099 37.5401 17.3699L26.2001 36.3699L25.2001 35.3699L32.1601 14.6099ZM12.0001 58.1999C11.7091 58.5212 11.3557 58.7799 10.9617 58.9605C10.5676 59.1411 10.1409 59.2397 9.70753 59.2503C9.27417 59.261 8.84316 59.1835 8.44066 59.0226C8.03815 58.8616 7.67254 58.6206 7.36602 58.314C7.0595 58.0075 6.81845 57.6419 6.6575 57.2394C6.49655 56.8369 6.41906 56.4059 6.42973 55.9725C6.4404 55.5392 6.53901 55.1125 6.71957 54.7184C6.90013 54.3243 7.15888 53.971 7.48012 53.6799L24.0701 37.0599L28.5901 41.5899L12.0001 58.1999ZM60.5001 22.3999C59.9913 24.8909 58.8621 27.2131 57.2172 29.1516C55.5724 31.0902 53.4649 32.5823 51.0901 33.4899L30.2701 40.4399L29.2701 39.4399L48.2701 28.0999C52.8301 25.9999 58.3401 18.3099 59.2201 12.7599V12.6999C60.7548 15.6887 61.197 19.1198 60.4701 22.3999H60.5001Z" fill="black"/>
</svg>
