<?xml version="1.0" encoding="utf-8"?>
<!-- Generator: Adobe Illustrator 23.0.1, SVG Export Plug-In . SVG Version: 6.00 Build 0)  -->
<svg version="1.1" id="Outline__x28_Expan_x29_" xmlns="http://www.w3.org/2000/svg" xmlns:xlink="http://www.w3.org/1999/xlink"
	 x="0px" y="0px" viewBox="0 0 64 64" enable-background="new 0 0 64 64" xml:space="preserve">
<g id="weight_scale_1_">
	<path d="M57,54h-1.037l-1.199-14.984c-0.749-9.367-7.229-17.103-15.79-19.89C38.98,19.083,39,19.045,39,19
		c0-2.414-1.721-4.434-4-4.899V10h18c3.86,0,7-3.14,7-7c0-0.552-0.448-1-1-1H5C4.448,2,4,2.448,4,3c0,3.86,3.14,7,7,7h18v4.101
		c-2.279,0.465-4,2.484-4,4.899c0,0.045,0.02,0.083,0.025,0.126c-8.561,2.787-15.041,10.523-15.79,19.89L8.037,54H7
		c-0.552,0-1,0.448-1,1v6c0,0.552,0.448,1,1,1h50c0.552,0,1-0.448,1-1v-6C58,54.448,57.552,54,57,54z M6.101,4h51.799
		C57.435,6.279,55.415,8,53,8H34h-4H11C8.585,8,6.565,6.279,6.101,4z M33,10v4h-2v-4H33z M27.171,18c0.413-1.164,1.525-2,2.829-2h4
		c1.304,0,2.416,0.836,2.829,2H27.171z M11.229,39.175C12.089,28.423,21.213,20,32,20s19.911,8.423,20.771,19.175L53.957,54H10.043
		L11.229,39.175z M56,60H8v-4h0.96h46.08H56V60z"/>
	<path d="M32,26c-7.168,0-13,5.832-13,13s5.832,13,13,13s13-5.832,13-13S39.168,26,32,26z M24.966,47.448l1.377-1.377l-1.414-1.414
		l-1.377,1.377c-1.391-1.667-2.294-3.751-2.501-6.034H23v-2h-1.949c0.207-2.283,1.111-4.366,2.501-6.034l1.377,1.377l1.414-1.414
		l-1.377-1.377c1.667-1.391,3.751-2.294,6.034-2.501V30h2v-1.949c2.283,0.207,4.366,1.111,6.034,2.501l-1.377,1.377l1.414,1.414
		l1.377-1.377c1.391,1.667,2.294,3.751,2.501,6.034H41v2h1.949c-0.207,2.283-1.111,4.366-2.501,6.034l-1.377-1.377l-1.414,1.414
		l1.377,1.377C37.125,49.039,34.673,50,32,50S26.875,49.039,24.966,47.448z"/>
	<path d="M16,46c-1.654,0-3,1.346-3,3s1.346,3,3,3s3-1.346,3-3S17.654,46,16,46z M16,50c-0.551,0-1-0.449-1-1s0.449-1,1-1
		s1,0.449,1,1S16.551,50,16,50z"/>
	<path d="M48,46c-1.654,0-3,1.346-3,3s1.346,3,3,3s3-1.346,3-3S49.654,46,48,46z M48,50c-0.551,0-1-0.449-1-1s0.449-1,1-1
		s1,0.449,1,1S48.551,50,48,50z"/>
	<path d="M32,36c-0.462,0-0.894,0.113-1.285,0.301l-3.008-3.008l-1.414,1.414l3.008,3.008C29.113,38.106,29,38.538,29,39
		c0,1.654,1.346,3,3,3s3-1.346,3-3S33.654,36,32,36z M32,40c-0.551,0-1-0.449-1-1s0.449-1,1-1s1,0.449,1,1S32.551,40,32,40z"/>
</g>
</svg>
