<?xml version="1.0" encoding="UTF-8" standalone="no"?> <svg width="64" height="64" viewBox="0 0 64 64" fill="none" xmlns="http://www.w3.org/2000/svg">
<path d="M55.4499 8.38997C55.4627 8.25752 55.449 8.12385 55.4095 7.99678C55.37 7.86972 55.3056 7.75181 55.2199 7.64997C55.0527 7.4464 54.8119 7.31704 54.5499 7.28997L10.9999 2.99997C10.7361 2.9749 10.473 3.05562 10.2686 3.22437C10.0643 3.39313 9.93524 3.63613 9.90992 3.89997L9.60992 6.76997C9.10934 11.5495 10.2065 16.3601 12.7299 20.45H9.54992C9.2847 20.45 9.03035 20.5553 8.84281 20.7429C8.65528 20.9304 8.54992 21.1848 8.54992 21.45V24.3C8.54718 27.9828 9.47965 31.606 11.2599 34.83H9.54992C9.2847 34.83 9.03035 34.9353 8.84281 35.1229C8.65528 35.3104 8.54992 35.5648 8.54992 35.83V38.72C8.53915 42.0554 9.29562 45.3485 10.7608 48.3449C12.2261 51.3412 14.3608 53.9604 16.9999 56C17.6147 56.4715 18.1142 57.0766 18.4607 57.7696C18.8072 58.4625 18.9916 59.2252 18.9999 60C18.9999 60.2652 19.1053 60.5195 19.2928 60.7071C19.4803 60.8946 19.7347 61 19.9999 61H42.7999C43.0651 61 43.3195 60.8946 43.507 60.7071C43.6946 60.5195 43.7999 60.2652 43.7999 60C43.8068 59.225 43.9905 58.4618 44.3371 57.7686C44.6837 57.0753 45.184 56.4704 45.7999 56C48.4415 53.962 50.5785 51.3433 52.0455 48.3468C53.5126 45.3503 54.2703 42.0563 54.2599 38.72V35.83C54.2599 35.5648 54.1546 35.3104 53.967 35.1229C53.7795 34.9353 53.5251 34.83 53.2599 34.83H51.5999C53.3847 31.6078 54.3175 27.9834 54.3099 24.3V21.41C54.3099 21.1448 54.2046 20.8904 54.017 20.7029C53.8295 20.5153 53.5751 20.41 53.3099 20.41H51.9999C53.7123 17.6294 54.7754 14.4983 55.1099 11.25L55.4499 8.38997ZM21.5299 51.81C21.3678 52.0191 21.1295 52.1554 20.8671 52.1891C20.6047 52.2229 20.3396 52.1513 20.1299 51.99C16.6627 49.3167 14.3856 45.3874 13.7899 41.05C13.7715 40.9186 13.7792 40.785 13.8125 40.6566C13.8457 40.5283 13.904 40.4077 13.9838 40.3019C14.0637 40.196 14.1636 40.1069 14.2779 40.0397C14.3922 39.9724 14.5186 39.9284 14.6499 39.91C14.7812 39.8916 14.9149 39.8992 15.0433 39.9325C15.1716 39.9658 15.2922 40.024 15.398 40.1039C15.5039 40.1837 15.593 40.2837 15.6602 40.3979C15.7275 40.5122 15.7715 40.6386 15.7899 40.77C16.3096 44.5946 18.3187 48.0592 21.3799 50.41C21.5845 50.5764 21.715 50.8169 21.7431 51.0791C21.7712 51.3413 21.6946 51.604 21.5299 51.81ZM52.3099 22.41V24.3C52.3289 28.0235 51.2884 31.6755 49.3099 34.83H13.5899C11.616 31.6735 10.5759 28.0228 10.5899 24.3V22.41H52.3099Z" fill="black"/>
</svg>
