<?xml version="1.0" encoding="UTF-8" standalone="no"?> <svg width="64" height="64" viewBox="0 0 64 64" fill="none" xmlns="http://www.w3.org/2000/svg">
<path d="M48.9201 19.77H46.8701C46.6015 19.7701 46.3355 19.7162 46.0882 19.6113C45.8409 19.5065 45.6172 19.3529 45.4305 19.1597C45.2439 18.9665 45.0981 18.7377 45.0018 18.4869C44.9055 18.2361 44.8607 17.9685 44.8701 17.7C44.8785 17.4077 44.9468 17.1203 45.0706 16.8554C45.1944 16.5906 45.3712 16.3539 45.5901 16.16C46.3682 15.4118 46.9791 14.5074 47.3827 13.5063C47.7863 12.5051 47.9735 11.4299 47.9319 10.3513C47.8904 9.27264 47.621 8.21501 47.1416 7.2479C46.6621 6.28079 45.9834 5.42609 45.1501 4.73998C44.2654 4.01795 43.2318 3.50089 42.1234 3.22596C41.0151 2.95104 39.8597 2.92509 38.7401 3.14998C37.2349 3.45076 35.8561 4.20025 34.7851 5.2998C33.7141 6.39934 33.0012 7.79741 32.7401 9.30998C32.5208 10.5684 32.618 11.8617 33.023 13.0732C33.428 14.2847 34.1281 15.3764 35.0601 16.25C35.2535 16.4127 35.4104 16.6144 35.5207 16.8418C35.6309 17.0693 35.6921 17.3174 35.7001 17.57C35.6975 18.1544 35.4634 18.7139 35.0493 19.1262C34.6351 19.5385 34.0745 19.77 33.4901 19.77H31.6601C29.457 19.7726 27.3448 20.649 25.787 22.2068C24.2291 23.7647 23.3527 25.8768 23.3501 28.08V56.7C23.3527 57.8396 23.8066 58.9318 24.6125 59.7376C25.4183 60.5435 26.5105 60.9973 27.6501 61H52.9301C54.0697 60.9973 55.1619 60.5435 55.9677 59.7376C56.7736 58.9318 57.2275 57.8396 57.2301 56.7V28.08C57.2274 25.8768 56.3511 23.7647 54.7932 22.2068C53.2354 20.649 51.1232 19.7726 48.9201 19.77V19.77ZM55.2301 56.7C55.2301 57.31 54.9878 57.895 54.5564 58.3263C54.1251 58.7577 53.5401 59 52.9301 59H27.6501C27.0409 58.9973 26.4574 58.7542 26.0267 58.3234C25.5959 57.8927 25.3527 57.3092 25.3501 56.7V28.08C25.3527 26.4073 26.0184 24.8038 27.2012 23.6211C28.384 22.4383 29.9874 21.7726 31.6601 21.77H33.5001C34.6149 21.77 35.6842 21.3278 36.4735 20.5404C37.2627 19.7531 37.7074 18.6848 37.7101 17.57C37.702 17.0425 37.5849 16.5225 37.3664 16.0424C37.1479 15.5623 36.8325 15.1325 36.4401 14.78C35.6809 14.0747 35.1304 13.1743 34.8485 12.1772C34.5667 11.18 34.5646 10.1246 34.8423 9.12634C35.12 8.12806 35.6668 7.22538 36.4231 6.51701C37.1793 5.80865 38.1158 5.32189 39.1301 5.10998C39.9615 4.94428 40.8191 4.96412 41.642 5.16809C42.4648 5.37207 43.2324 5.75514 43.8901 6.28998C44.5059 6.79615 45.0074 7.42711 45.3616 8.14125C45.7157 8.8554 45.9145 9.6365 45.9447 10.4331C45.9749 11.2296 45.836 12.0235 45.537 12.7625C45.238 13.5014 44.7858 14.1686 44.2101 14.72C43.797 15.1041 43.4662 15.568 43.2376 16.0836C43.009 16.5993 42.8874 17.156 42.8801 17.72C42.8801 18.7808 43.3015 19.7983 44.0517 20.5484C44.8018 21.2986 45.8192 21.72 46.8801 21.72H48.9301C50.6028 21.7226 52.2062 22.3883 53.389 23.5711C54.5718 24.7538 55.2375 26.3573 55.2401 28.03L55.2301 56.7Z" fill="black"/>
<path d="M40.2901 7.05C39.6133 7.05001 38.9516 7.25084 38.389 7.62708C37.8264 8.00332 37.388 8.53804 37.1295 9.16355C36.8709 9.78905 36.8038 10.4772 36.9366 11.1409C37.0693 11.8046 37.3961 12.414 37.8754 12.8918C38.3547 13.3697 38.965 13.6947 39.629 13.8255C40.2931 13.9563 40.9811 13.8872 41.6058 13.6268C42.2306 13.3664 42.764 12.9265 43.1386 12.3628C43.5132 11.799 43.7121 11.1368 43.7101 10.46C43.7101 10.0114 43.6216 9.56711 43.4496 9.15274C43.2776 8.73836 43.0255 8.362 42.7078 8.04523C42.3901 7.72845 42.013 7.47748 41.5981 7.3067C41.1832 7.13592 40.7388 7.04869 40.2901 7.05ZM40.2901 11.88C40.0093 11.88 39.7347 11.7967 39.5012 11.6407C39.2677 11.4847 39.0857 11.2629 38.9782 11.0034C38.8707 10.7439 38.8426 10.4584 38.8974 10.183C38.9522 9.90752 39.0874 9.6545 39.286 9.45591C39.4846 9.25732 39.7376 9.12208 40.0131 9.06729C40.2885 9.0125 40.574 9.04062 40.8335 9.14809C41.093 9.25557 41.3148 9.43757 41.4708 9.67109C41.6268 9.90461 41.7101 10.1792 41.7101 10.46C41.7101 10.8366 41.5605 11.1978 41.2942 11.4641C41.0279 11.7304 40.6667 11.88 40.2901 11.88V11.88Z" fill="black"/>
<path d="M13.69 7.07996C13.5439 7.03972 13.3906 7.03322 13.2416 7.06094C13.0926 7.08866 12.9519 7.14987 12.83 7.23996C11.0158 8.48787 9.52152 10.1461 8.46857 12.08C7.41561 14.0139 6.83367 16.1689 6.77002 18.37V41.37C6.77002 41.6352 6.87538 41.8895 7.06291 42.0771C7.25045 42.2646 7.5048 42.37 7.77002 42.37H8.28002V57.7C8.28292 58.192 8.39516 58.6772 8.6086 59.1206C8.82205 59.5639 9.13137 59.9542 9.51418 60.2634C9.897 60.5725 10.3437 60.7927 10.8221 60.9079C11.3004 61.0232 11.7984 61.0308 12.28 60.93L13.77 60.63C16.37 60.22 17.58 56.84 15.16 55.33C15.0297 55.2502 14.9219 55.1386 14.8467 55.0056C14.7714 54.8726 14.7313 54.7227 14.73 54.57V42.37H17.38C17.6304 42.371 17.872 42.2781 18.0571 42.1096C18.2423 41.9411 18.3575 41.7093 18.38 41.46L18.87 35.8C19.6626 26.1915 18.1079 16.5343 14.34 7.65996C14.2824 7.52052 14.1941 7.3959 14.0815 7.29546C13.9689 7.19502 13.8351 7.12134 13.69 7.07996ZM14.08 57.08C14.94 57.67 14.08 58.6 13.34 58.71L11.84 59.01C11.6515 59.0485 11.4567 59.0446 11.2698 58.9987C11.0829 58.9527 10.9085 58.8659 10.7593 58.7444C10.61 58.6229 10.4896 58.4697 10.4067 58.2961C10.3238 58.1224 10.2806 57.9324 10.28 57.74V42.37H12.69V54.57C12.6987 55.0592 12.8307 55.5384 13.0736 55.9631C13.3166 56.3878 13.6627 56.7444 14.08 57V57.08ZM16.82 35.67L16.42 40.41H8.77002V18.41C8.80767 16.7351 9.20485 15.0879 9.93466 13.58C10.6645 12.0721 11.7099 10.7386 13 9.66996C16.267 17.9106 17.5748 26.7976 16.82 35.63V35.67Z" fill="black"/>
</svg>
