<svg xmlns="http://www.w3.org/2000/svg" version="1.1" xmlns:xlink="http://www.w3.org/1999/xlink" xmlns:svgjs="http://svgjs.dev/svgjs" width="1000" height="1000" viewBox="0 0 1000 1000"><rect width="1000" height="1000" fill="#000000"></rect><g transform="matrix(0.7,0,0,0.7,149.57575757575756,282.1265587044535)"><svg viewBox="0 0 396 247" data-background-color="#4b91f1" preserveAspectRatio="xMidYMid meet" height="623" width="1000" xmlns="http://www.w3.org/2000/svg" xmlns:xlink="http://www.w3.org/1999/xlink"><g id="tight-bounds" transform="matrix(1,0,0,1,0.2400000000000091,-0.09999999999999432)"><svg viewBox="0 0 395.52 247.2" height="247.2" width="395.52"><g><svg></svg></g><g><svg viewBox="0 0 395.52 247.2" height="247.2" width="395.52"><g transform="matrix(1,0,0,1,75.54432,83.88548972577696)"><svg viewBox="0 0 244.43135999999998 79.42902054844606" height="79.42902054844606" width="244.43135999999998"><g><svg viewBox="0 0 244.43135999999998 79.42902054844606" height="79.42902054844606" width="244.43135999999998"><g><svg viewBox="0 0 244.43135999999998 79.42902054844606" height="79.42902054844606" width="244.43135999999998"><g><svg viewBox="0 0 244.43135999999998 79.42902054844606" height="79.42902054844606" width="244.43135999999998"><g id="textblocktransform"><svg viewBox="0 0 244.43135999999998 79.42902054844606" height="79.42902054844606" width="244.43135999999998" id="textblock"><g><svg viewBox="0 0 244.43135999999998 79.42902054844606" height="79.42902054844606" width="244.43135999999998"><g transform="matrix(1,0,0,1,0,0)"><svg width="244.43135999999998" viewBox="1.7999999523162842 -35.400001525878906 109.38999938964844 35.55000305175781" height="79.42902054844606" data-palette-color="#77d4fc"><path d="M16.55-35.4L16.55-35.4 16.55-34.4Q14.85-34.35 13.98-34.02 13.1-33.7 12.8-32.83 12.5-31.95 12.5-30.1L12.5-30.1 12.5-4.9Q12.5-3.3 12.78-2.48 13.05-1.65 13.8-1.4 14.55-1.15 15.95-1.15L15.95-1.15 18.8-1.15Q21.4-1.15 23.2-2.4 25-3.65 26.1-6 27.2-8.35 27.6-11.7L27.6-11.7 28.75-11.7Q28.6-10.05 28.6-7.4L28.6-7.4Q28.6-6.3 28.68-4.25 28.75-2.2 28.95 0L28.95 0Q26.4-0.1 23.2-0.13 20-0.15 17.5-0.15L17.5-0.15Q15.9-0.15 13.2-0.15 10.5-0.15 7.48-0.13 4.45-0.1 1.8 0L1.8 0 1.8-1Q3.45-1.1 4.28-1.4 5.1-1.7 5.38-2.6 5.65-3.5 5.65-5.3L5.65-5.3 5.65-30.1Q5.65-31.95 5.38-32.83 5.1-33.7 4.28-34.02 3.45-34.35 1.8-34.4L1.8-34.4 1.8-35.4Q3.05-35.35 5-35.3 6.95-35.25 9.2-35.25L9.2-35.25Q11.25-35.25 13.25-35.3 15.25-35.35 16.55-35.4ZM46.8-35.4L46.8-35.4Q56.4-35.4 61.02-30.93 65.65-26.45 65.65-18.1L65.65-18.1Q65.65-12.65 63.37-8.58 61.1-4.5 56.8-2.25 52.5 0 46.35 0L46.35 0Q45.25 0 43.05-0.08 40.85-0.15 39.15-0.15L39.15-0.15Q37.1-0.15 35.15-0.13 33.2-0.1 31.95 0L31.95 0 31.95-1Q33.6-1.1 34.42-1.4 35.25-1.7 35.52-2.6 35.8-3.5 35.8-5.3L35.8-5.3 35.8-30.1Q35.8-31.95 35.52-32.83 35.25-33.7 34.42-34.02 33.6-34.35 31.95-34.4L31.95-34.4 31.95-35.4Q33.2-35.35 35.15-35.27 37.1-35.2 39.05-35.25L39.05-35.25Q40.85-35.3 43.1-35.35 45.35-35.4 46.8-35.4ZM46.35-34.5L46.35-34.5Q44.05-34.5 43.35-33.65 42.65-32.8 42.65-30.2L42.65-30.2 42.65-5.2Q42.65-2.6 43.37-1.75 44.1-0.9 46.4-0.9L46.4-0.9Q51.05-0.9 53.67-2.88 56.3-4.85 57.37-8.65 58.45-12.45 58.45-17.9L58.45-17.9Q58.45-26.3 55.72-30.4 53-34.5 46.35-34.5ZM111.19-35.4L111.19-35.4 111.19-34.4Q109.59-34.35 108.75-34.02 107.9-33.7 107.62-32.83 107.34-31.95 107.34-30.1L107.34-30.1 107.34-5.3Q107.34-3.5 107.65-2.6 107.94-1.7 108.77-1.4 109.59-1.1 111.19-1L111.19-1 111.19 0Q109.9-0.1 107.9-0.13 105.9-0.15 103.84-0.15L103.84-0.15Q101.59-0.15 99.62-0.13 97.64-0.1 96.44 0L96.44 0 96.44-1Q98.14-1.1 99.02-1.4 99.9-1.7 100.19-2.6 100.5-3.5 100.5-5.3L100.5-5.3 100.5-32.5 100.84-32.45 88.44 0.15 87.64 0.15 74.44-32.2 74.44-7.4Q74.44-5 74.75-3.68 75.05-2.35 76.07-1.78 77.09-1.2 79.19-1L79.19-1 79.19 0Q78.25-0.1 76.75-0.13 75.25-0.15 73.89-0.15L73.89-0.15Q72.69-0.15 71.47-0.13 70.25-0.1 69.44 0L69.44 0 69.44-1Q71.09-1.2 71.92-1.75 72.75-2.3 73.02-3.55 73.3-4.8 73.3-7L73.3-7 73.3-30.1Q73.3-31.95 73.02-32.83 72.75-33.7 71.92-34.02 71.09-34.35 69.44-34.4L69.44-34.4 69.44-35.4Q70.25-35.35 71.47-35.3 72.69-35.25 73.89-35.25L73.89-35.25Q75.75-35.25 77.5-35.3 79.25-35.35 80.59-35.4L80.59-35.4 91.34-8.55 90.25-7.65 100.69-35.25Q101.44-35.25 102.27-35.25 103.09-35.25 103.84-35.25L103.84-35.25Q105.9-35.25 107.9-35.3 109.9-35.35 111.19-35.4Z" opacity="1" transform="matrix(1,0,0,1,0,0)" fill="#ffffff" class="wordmark-text-0" data-fill-palette-color="primary" id="text-0"></path></svg></g></svg></g></svg></g></svg></g></svg></g></svg></g></svg></g><path d="M183.111 77.885L183.111 22.667 384.977 22.667 384.977 224.533 183.111 224.533 183.111 169.315 190.274 169.315 190.274 217.37 377.814 217.37 377.814 29.83 190.274 29.83 190.274 77.885Z" fill="#ffffff" stroke="transparent" data-fill-palette-color="primary"></path></svg></g><defs></defs></svg><rect width="395.52" height="247.2" fill="none" stroke="none" visibility="hidden"></rect></g></svg></g></svg>